<?xml version="1.0" standalone="no"?>
<!DOCTYPE svg PUBLIC "-//W3C//DTD SVG 20010904//EN"
 "http://www.w3.org/TR/2001/REC-SVG-20010904/DTD/svg10.dtd">
<svg version="1.0" xmlns="http://www.w3.org/2000/svg"
 width="500.000000pt" height="500.000000pt" viewBox="0 0 500.000000 500.000000"
 preserveAspectRatio="xMidYMid meet">
<metadata>
Created by potrace 1.16, written by Peter Selinger 2001-2019
</metadata>
<g transform="translate(0.000000,500.000000) scale(0.100000,-0.100000)"
fill="#000000" stroke="none">
<path d="M2290 3831 c0 -7 29 -11 78 -11 43 0 82 -3 86 -7 13 -13 109 -35 166
-39 75 -4 122 -14 138 -30 17 -17 42 -18 42 -1 0 6 -22 22 -49 35 -37 17 -67
22 -125 22 -42 0 -76 4 -76 9 0 12 -59 22 -167 28 -62 3 -93 1 -93 -6z"/>
<path d="M2135 3810 c-3 -5 -27 -10 -53 -10 -56 0 -83 -13 -65 -31 10 -10 18
-10 35 -1 13 6 41 11 62 10 23 -1 41 3 44 10 2 7 22 12 48 12 24 0 44 5 44 10
0 6 -24 10 -54 10 -30 0 -58 -4 -61 -10z"/>
<path d="M1890 3760 c-11 -11 -28 -20 -38 -20 -21 0 -52 -29 -52 -48 0 -18 13
-15 38 8 12 11 24 20 27 20 3 0 15 9 27 20 12 11 34 20 50 20 15 0 28 5 28 10
0 18 -59 11 -80 -10z"/>
<path d="M2836 3745 c-28 -21 -12 -30 31 -17 20 6 41 8 47 5 5 -4 38 -8 73
-10 48 -2 63 0 63 11 0 26 -182 35 -214 11z"/>
<path d="M3060 3730 c0 -5 9 -10 20 -10 10 0 24 -9 30 -20 8 -15 17 -19 31
-15 11 4 30 0 44 -9 13 -9 31 -16 40 -16 14 0 53 -18 65 -30 3 -3 16 -11 30
-18 14 -7 30 -23 35 -35 6 -12 33 -33 60 -47 187 -98 178 -90 215 -187 7 -18
16 -33 21 -33 12 0 11 57 -1 65 -5 3 -10 15 -10 26 0 25 -66 89 -91 89 -9 0
-19 3 -21 8 -1 4 -33 23 -70 42 -38 19 -68 38 -68 41 0 28 -153 119 -199 119
-12 0 -21 3 -21 8 0 8 -71 32 -95 32 -8 0 -15 -4 -15 -10z"/>
<path d="M1920 3710 c0 -5 5 -10 10 -10 6 0 10 5 10 10 0 6 -4 10 -10 10 -5 0
-10 -4 -10 -10z"/>
<path d="M1750 3690 c0 -5 -7 -10 -15 -10 -8 0 -15 -4 -15 -10 0 -15 19 -12
36 4 16 17 18 26 4 26 -5 0 -10 -4 -10 -10z"/>
<path d="M1870 3670 c0 -5 5 -10 10 -10 6 0 10 5 10 10 0 6 -4 10 -10 10 -5 0
-10 -4 -10 -10z"/>
<path d="M2540 3665 c-7 -9 -11 -18 -8 -20 6 -6 58 18 58 28 0 13 -37 7 -50
-8z"/>
<path d="M2720 3649 c0 -24 23 -21 28 4 2 10 -3 17 -12 17 -10 0 -16 -9 -16
-21z"/>
<path d="M1648 3648 c-34 -12 -37 -28 -5 -28 23 0 47 17 47 32 0 10 -7 9 -42
-4z"/>
<path d="M1770 3630 c0 -5 5 -10 10 -10 6 0 10 5 10 10 0 6 -4 10 -10 10 -5 0
-10 -4 -10 -10z"/>
<path d="M2206 3624 c-9 -24 -7 -44 4 -44 6 0 10 9 10 20 0 11 5 20 10 20 6 0
10 5 10 10 0 16 -27 11 -34 -6z"/>
<path d="M2473 3630 c-27 -11 -30 -30 -5 -30 19 0 42 18 42 32 0 10 -9 9 -37
-2z"/>
<path d="M2610 3630 c0 -5 7 -10 15 -10 8 0 15 5 15 10 0 6 -7 10 -15 10 -8 0
-15 -4 -15 -10z"/>
<path d="M1570 3606 c0 -14 -49 -36 -81 -36 -11 0 -19 -4 -19 -10 0 -5 -13
-10 -30 -10 -16 0 -30 -4 -30 -10 0 -5 -7 -10 -15 -10 -8 0 -15 -4 -15 -8 0
-5 -12 -15 -27 -22 -71 -36 -152 -154 -153 -223 0 -9 -4 -26 -10 -37 -5 -11
-14 -29 -20 -40 -5 -11 -10 -26 -10 -34 0 -8 -13 -40 -30 -71 -16 -31 -30 -63
-30 -71 0 -7 -9 -29 -20 -49 -11 -20 -20 -44 -20 -53 0 -10 -5 -23 -11 -29
-11 -11 -7 -103 10 -233 14 -101 29 -214 37 -275 3 -27 10 -54 15 -60 5 -5 9
-17 9 -27 0 -10 4 -26 9 -36 5 -9 19 -39 32 -67 13 -27 37 -70 54 -95 44 -63
100 -185 113 -245 11 -50 13 -265 2 -265 -3 0 -12 -20 -19 -45 -7 -25 -16 -45
-20 -45 -4 0 -14 -12 -23 -27 -9 -16 -37 -49 -62 -76 -25 -26 -46 -50 -46 -52
0 -27 98 62 147 135 42 63 47 86 47 250 0 173 -8 209 -56 282 -10 14 -18 32
-18 40 0 7 -11 26 -25 42 -13 16 -45 70 -70 122 -45 91 -51 114 -75 294 -46
339 -46 353 -22 403 12 23 28 64 37 91 9 27 27 72 40 101 14 28 28 67 32 86 3
19 12 39 19 46 6 7 15 34 19 60 5 32 19 64 43 96 45 58 131 127 160 127 11 0
24 5 27 10 3 6 15 10 25 10 31 0 120 55 120 74 0 3 -9 6 -20 6 -11 0 -20 -6
-20 -14z"/>
<path d="M2402 3598 c-13 -13 -16 -38 -4 -38 13 1 42 27 42 39 0 15 -23 14
-38 -1z"/>
<path d="M1983 3575 c-8 -22 6 -33 17 -15 13 20 12 30 0 30 -6 0 -13 -7 -17
-15z"/>
<path d="M2350 3545 c0 -8 5 -15 10 -15 6 0 10 7 10 15 0 8 -4 15 -10 15 -5 0
-10 -7 -10 -15z"/>
<path d="M2450 3545 c0 -8 5 -15 10 -15 6 0 10 7 10 15 0 8 -4 15 -10 15 -5 0
-10 -7 -10 -15z"/>
<path d="M1960 3517 c0 -13 -4 -27 -9 -32 -15 -17 -23 -67 -10 -63 7 2 16 11
19 19 4 8 12 24 19 37 12 24 7 62 -10 62 -5 0 -9 -10 -9 -23z"/>
<path d="M2290 3525 c0 -8 7 -15 15 -15 8 0 15 7 15 15 0 8 -7 15 -15 15 -8 0
-15 -7 -15 -15z"/>
<path d="M1742 3475 c-32 -36 -40 -55 -22 -55 6 0 10 6 10 13 0 6 14 23 30 36
29 22 39 41 22 41 -4 0 -22 -16 -40 -35z"/>
<path d="M2550 3450 c0 -27 -4 -50 -10 -50 -5 0 -10 -11 -10 -25 0 -14 5 -25
10 -25 6 0 10 10 10 21 0 12 6 27 14 33 9 7 12 25 9 54 -7 58 -23 53 -23 -8z"/>
<path d="M1550 3480 c0 -5 5 -10 10 -10 6 0 10 5 10 10 0 6 -4 10 -10 10 -5 0
-10 -4 -10 -10z"/>
<path d="M2430 3460 c0 -5 5 -10 10 -10 6 0 10 5 10 10 0 6 -4 10 -10 10 -5 0
-10 -4 -10 -10z"/>
<path d="M1530 3433 c0 -10 -9 -29 -20 -43 -23 -29 -25 -40 -7 -40 17 1 57 67
51 85 -8 21 -24 19 -24 -2z"/>
<path d="M2290 3440 c0 -5 7 -10 15 -10 8 0 15 5 15 10 0 6 -7 10 -15 10 -8 0
-15 -4 -15 -10z"/>
<path d="M2483 3435 c-16 -17 -17 -35 -3 -35 6 0 10 7 10 15 0 8 5 15 10 15 6
0 10 5 10 10 0 14 -13 12 -27 -5z"/>
<path d="M3342 3430 c-14 -22 -16 -50 -4 -50 8 0 42 52 42 64 0 14 -26 4 -38
-14z"/>
<path d="M1670 3420 c0 -5 5 -10 10 -10 6 0 10 5 10 10 0 6 -4 10 -10 10 -5 0
-10 -4 -10 -10z"/>
<path d="M2410 3420 c0 -5 5 -10 10 -10 6 0 10 5 10 10 0 6 -4 10 -10 10 -5 0
-10 -4 -10 -10z"/>
<path d="M3050 3420 c0 -5 7 -10 15 -10 8 0 15 5 15 10 0 6 -7 10 -15 10 -8 0
-15 -4 -15 -10z"/>
<path d="M3170 3420 c0 -5 7 -10 15 -10 8 0 15 5 15 10 0 6 -7 10 -15 10 -8 0
-15 -4 -15 -10z"/>
<path d="M2968 3393 c-7 -10 -25 -24 -40 -32 -32 -16 -36 -31 -10 -31 19 0 92
56 92 71 0 15 -28 10 -42 -8z"/>
<path d="M1650 3380 c0 -5 5 -10 10 -10 6 0 10 5 10 10 0 6 -4 10 -10 10 -5 0
-10 -4 -10 -10z"/>
<path d="M2160 3330 c0 -33 4 -60 10 -60 6 0 10 27 10 60 0 33 -4 60 -10 60
-6 0 -10 -27 -10 -60z"/>
<path d="M2450 3380 c0 -5 5 -10 10 -10 6 0 10 5 10 10 0 6 -4 10 -10 10 -5 0
-10 -4 -10 -10z"/>
<path d="M2680 3360 c0 -11 7 -20 15 -20 8 0 15 9 15 20 0 11 -7 20 -15 20 -8
0 -15 -9 -15 -20z"/>
<path d="M1885 3350 c-3 -11 -11 -20 -16 -20 -5 0 -9 -9 -9 -20 0 -11 7 -20
15 -20 8 0 15 9 15 19 0 11 5 23 10 26 13 8 13 35 1 35 -5 0 -13 -9 -16 -20z"/>
<path d="M3046 3339 c-10 -17 -15 -33 -12 -36 7 -8 56 39 56 55 0 23 -26 12
-44 -19z"/>
<path d="M3288 3356 c-10 -7 -18 -23 -18 -35 0 -11 -4 -21 -10 -21 -5 0 -18
-10 -30 -22 -21 -23 -28 -68 -10 -68 6 0 10 8 10 18 0 9 9 23 20 30 11 7 20
19 20 27 0 8 4 15 8 15 8 0 16 14 40 63 6 11 -11 8 -30 -7z"/>
<path d="M3143 3353 c-22 -8 -14 -23 12 -23 16 0 25 6 25 15 0 15 -14 18 -37
8z"/>
<path d="M2430 3330 c0 -11 5 -20 10 -20 6 0 10 9 10 20 0 11 -4 20 -10 20 -5
0 -10 -9 -10 -20z"/>
<path d="M3390 3330 c0 -11 5 -20 10 -20 6 0 10 9 10 20 0 11 -4 20 -10 20 -5
0 -10 -9 -10 -20z"/>
<path d="M2542 3310 c-17 -28 -16 -80 2 -80 22 0 29 19 15 36 -9 11 -9 18 -1
26 13 13 16 38 4 38 -4 0 -13 -9 -20 -20z"/>
<path d="M1420 3300 c0 -5 5 -10 10 -10 6 0 10 5 10 10 0 6 -4 10 -10 10 -5 0
-10 -4 -10 -10z"/>
<path d="M1570 3285 c0 -8 5 -15 10 -15 6 0 10 7 10 15 0 8 -4 15 -10 15 -5 0
-10 -7 -10 -15z"/>
<path d="M2640 3280 c0 -5 -7 -10 -15 -10 -8 0 -15 -9 -15 -20 0 -11 4 -20 9
-20 5 0 13 9 16 20 3 11 13 20 21 20 8 0 14 5 14 10 0 6 -7 10 -15 10 -8 0
-15 -4 -15 -10z"/>
<path d="M2856 3274 c-4 -9 -5 -19 -2 -21 6 -6 46 20 46 29 0 15 -38 8 -44 -8z"/>
<path d="M1830 3244 c-12 -19 -20 -37 -18 -40 11 -10 38 9 38 27 0 10 5 19 10
19 6 0 10 7 10 15 0 25 -17 17 -40 -21z"/>
<path d="M3645 3263 c23 -53 42 -260 26 -276 -6 -6 -11 -19 -11 -29 0 -10 -4
-18 -10 -18 -5 0 -10 -9 -10 -20 0 -11 -4 -20 -10 -20 -5 0 -10 -7 -10 -15 0
-8 5 -15 10 -15 6 0 10 4 10 9 0 6 10 21 23 35 49 53 55 120 25 299 -9 56 -14
67 -31 67 -14 0 -17 -4 -12 -17z"/>
<path d="M1730 3255 c0 -8 5 -15 10 -15 6 0 10 7 10 15 0 8 -4 15 -10 15 -5 0
-10 -7 -10 -15z"/>
<path d="M2920 3260 c0 -5 5 -10 10 -10 6 0 10 5 10 10 0 6 -4 10 -10 10 -5 0
-10 -4 -10 -10z"/>
<path d="M3430 3245 c0 -14 5 -25 10 -25 6 0 10 11 10 25 0 14 -4 25 -10 25
-5 0 -10 -11 -10 -25z"/>
<path d="M2971 3237 c-16 -20 -18 -59 -3 -64 7 -3 12 5 12 21 0 13 5 28 10 31
12 8 13 25 1 25 -5 0 -14 -6 -20 -13z"/>
<path d="M1465 3209 c-9 -29 4 -38 21 -15 18 25 18 36 0 36 -8 0 -18 -9 -21
-21z"/>
<path d="M1710 3220 c0 -5 5 -10 10 -10 6 0 10 5 10 10 0 6 -4 10 -10 10 -5 0
-10 -4 -10 -10z"/>
<path d="M2773 3199 c-24 -17 -43 -34 -43 -40 0 -13 9 -11 57 12 28 14 43 27
43 40 0 25 -7 24 -57 -12z"/>
<path d="M1960 3170 c0 -27 4 -50 9 -50 10 0 20 68 13 88 -10 28 -22 8 -22
-38z"/>
<path d="M3095 3190 c-10 -11 -15 -23 -12 -26 8 -8 57 23 57 36 0 17 -26 11
-45 -10z"/>
<path d="M2863 3193 c-13 -2 -23 -11 -23 -20 0 -11 6 -14 23 -9 12 3 25 6 30
6 4 0 7 7 7 15 0 8 -3 14 -7 14 -5 -1 -18 -4 -30 -6z"/>
<path d="M3486 3191 c-10 -16 -3 -92 8 -88 14 5 21 97 7 97 -5 0 -12 -4 -15
-9z"/>
<path d="M2410 3175 c0 -8 9 -15 20 -15 11 0 20 7 20 15 0 8 -9 15 -20 15 -11
0 -20 -7 -20 -15z"/>
<path d="M2480 3175 c0 -8 7 -15 15 -15 8 0 15 7 15 15 0 8 -7 15 -15 15 -8 0
-15 -7 -15 -15z"/>
<path d="M2550 3155 c0 -8 5 -15 10 -15 6 0 10 7 10 15 0 8 -4 15 -10 15 -5 0
-10 -7 -10 -15z"/>
<path d="M1710 3145 c0 -8 5 -15 10 -15 6 0 10 7 10 15 0 8 -4 15 -10 15 -5 0
-10 -7 -10 -15z"/>
<path d="M2960 3150 c0 -5 -10 -10 -23 -10 -25 0 -47 -17 -47 -37 0 -19 16
-16 55 10 33 21 47 47 25 47 -5 0 -10 -4 -10 -10z"/>
<path d="M2160 3130 c0 -11 5 -20 10 -20 6 0 10 9 10 20 0 11 -4 20 -10 20 -5
0 -10 -9 -10 -20z"/>
<path d="M2590 3140 c0 -5 5 -10 10 -10 6 0 10 5 10 10 0 6 -4 10 -10 10 -5 0
-10 -4 -10 -10z"/>
<path d="M2250 3120 c-14 -11 -31 -20 -37 -20 -7 0 -13 -5 -13 -11 0 -7 11 -8
32 -3 37 8 78 32 78 45 0 16 -34 9 -60 -11z"/>
<path d="M2630 3130 c0 -5 5 -10 10 -10 6 0 10 5 10 10 0 6 -4 10 -10 10 -5 0
-10 -4 -10 -10z"/>
<path d="M3020 3127 c0 -7 -9 -18 -20 -25 -18 -11 -29 -52 -14 -52 11 0 34 29
34 43 0 8 7 17 15 21 8 3 15 10 15 16 0 5 -7 10 -15 10 -8 0 -15 -6 -15 -13z"/>
<path d="M3345 3119 c-8 -23 -1 -34 14 -24 13 8 15 45 2 45 -5 0 -13 -9 -16
-21z"/>
<path d="M1400 3115 c0 -8 5 -15 10 -15 6 0 10 7 10 15 0 8 -4 15 -10 15 -5 0
-10 -7 -10 -15z"/>
<path d="M3080 3070 c0 -5 7 -10 15 -10 8 0 15 5 15 10 0 6 -7 10 -15 10 -8 0
-15 -4 -15 -10z"/>
<path d="M1348 3030 c-7 -16 -16 -30 -20 -30 -5 0 -8 -7 -8 -15 0 -8 5 -15 10
-15 6 0 10 5 10 10 0 6 9 20 20 32 21 23 27 48 11 48 -5 0 -15 -13 -23 -30z"/>
<path d="M2150 3050 c0 -5 7 -10 15 -10 8 0 15 5 15 10 0 6 -7 10 -15 10 -8 0
-15 -4 -15 -10z"/>
<path d="M3040 3050 c0 -5 5 -10 10 -10 6 0 10 5 10 10 0 6 -4 10 -10 10 -5 0
-10 -4 -10 -10z"/>
<path d="M1495 2994 c-9 -14 -14 -28 -11 -31 8 -9 46 27 46 44 0 21 -16 15
-35 -13z"/>
<path d="M1260 2970 c0 -5 5 -10 10 -10 6 0 10 5 10 10 0 6 -4 10 -10 10 -5 0
-10 -4 -10 -10z"/>
<path d="M3480 2970 c0 -5 7 -10 15 -10 8 0 15 5 15 10 0 6 -7 10 -15 10 -8 0
-15 -4 -15 -10z"/>
<path d="M3520 2971 c0 -5 6 -11 12 -13 7 -3 11 -18 10 -36 -3 -47 22 -41 41
10 19 48 17 54 -14 37 -17 -9 -24 -9 -27 0 -4 13 -22 15 -22 2z"/>
<path d="M3438 2963 c-27 -7 -22 -23 7 -23 16 0 25 6 25 15 0 15 -2 16 -32 8z"/>
<path d="M1490 2924 c0 -9 -9 -29 -21 -46 -12 -16 -18 -32 -14 -36 4 -4 13 2
21 13 8 11 21 28 30 38 16 19 13 47 -6 47 -5 0 -10 -7 -10 -16z"/>
<path d="M2120 2931 c0 -5 -13 -14 -30 -21 -16 -7 -30 -16 -30 -21 0 -5 -9 -9
-20 -9 -11 0 -20 -4 -20 -10 0 -5 -7 -10 -15 -10 -8 0 -15 -7 -15 -15 0 -8
-11 -17 -25 -21 -30 -7 -33 -24 -5 -24 20 0 42 15 87 58 13 12 30 22 38 22 8
0 20 9 27 20 7 11 21 20 30 20 10 0 18 5 18 10 0 6 -9 10 -20 10 -11 0 -20 -4
-20 -9z"/>
<path d="M1240 2885 c0 -8 5 -15 10 -15 6 0 10 7 10 15 0 8 -4 15 -10 15 -5 0
-10 -7 -10 -15z"/>
<path d="M3580 2835 c0 -8 7 -15 15 -15 8 0 15 7 15 15 0 8 -7 15 -15 15 -8 0
-15 -7 -15 -15z"/>
<path d="M2920 2790 c0 -5 5 -10 10 -10 6 0 10 5 10 10 0 6 -4 10 -10 10 -5 0
-10 -4 -10 -10z"/>
<path d="M2816 2781 c-22 -3 -41 -12 -44 -19 -3 -11 8 -12 54 -7 33 4 61 9 64
12 5 4 -22 24 -30 21 -3 0 -23 -4 -44 -7z"/>
<path d="M2962 2773 c4 -22 38 -30 38 -10 0 8 -7 18 -16 21 -23 9 -26 8 -22
-11z"/>
<path d="M3600 2770 c0 -5 7 -10 15 -10 8 0 15 5 15 10 0 6 -7 10 -15 10 -8 0
-15 -4 -15 -10z"/>
<path d="M1345 2747 c-22 -12 -41 -25 -43 -29 -2 -5 -10 -8 -17 -8 -26 0 -42
-48 -55 -161 -10 -87 -10 -120 -1 -136 6 -12 11 -37 11 -55 0 -18 11 -52 23
-75 25 -46 95 -133 109 -133 14 0 9 22 -10 39 -27 24 -82 107 -82 125 0 8 -4
18 -10 21 -15 9 -13 290 3 318 14 26 18 29 75 62 51 30 99 32 154 5 23 -11 46
-20 52 -20 11 0 96 -89 96 -101 0 -5 9 -9 19 -9 10 0 22 -8 27 -17 11 -26 14
-332 3 -338 -11 -7 -12 -55 -1 -55 22 0 32 66 33 222 2 157 0 168 -20 197 -12
17 -28 31 -35 31 -7 0 -25 17 -41 39 -26 34 -85 70 -118 71 -6 0 -21 7 -31 15
-29 22 -95 18 -141 -8z"/>
<path d="M1740 2750 c0 -5 9 -10 20 -10 11 0 20 5 20 10 0 6 -9 10 -20 10 -11
0 -20 -4 -20 -10z"/>
<path d="M1900 2750 c0 -5 5 -10 10 -10 6 0 10 5 10 10 0 6 -4 10 -10 10 -5 0
-10 -4 -10 -10z"/>
<path d="M2013 2744 c-30 -14 -7 -22 80 -28 50 -3 117 -11 147 -16 81 -16 191
-29 312 -36 72 -5 109 -11 112 -20 3 -7 -2 -15 -9 -18 -30 -11 -62 -136 -35
-136 6 0 10 11 10 25 0 28 20 75 32 75 4 0 8 -4 8 -10 0 -5 7 -10 15 -10 8 0
15 5 15 10 0 6 -7 10 -15 10 -8 0 -15 4 -15 9 0 16 26 30 60 32 53 3 224 -12
235 -21 9 -7 87 -18 159 -23 16 -1 31 4 33 11 3 8 -6 12 -26 12 -16 0 -33 5
-36 10 -3 6 -32 10 -64 10 -31 0 -61 4 -66 9 -10 9 -67 17 -210 26 -44 4 -89
10 -100 15 -11 5 -58 11 -105 14 -91 6 -206 19 -310 35 -89 14 -212 22 -227
15z"/>
<path d="M3637 2698 c6 -40 16 -57 36 -58 10 0 9 27 -2 48 -5 9 -12 25 -15 35
-11 34 -24 16 -19 -25z"/>
<path d="M1642 2708 c3 -7 13 -15 22 -16 12 -3 17 1 14 10 -3 7 -13 15 -22 16
-12 3 -17 -1 -14 -10z"/>
<path d="M1420 2696 c0 -10 9 -16 25 -16 14 0 25 5 25 10 0 6 -4 10 -9 10 -5
0 -16 3 -25 6 -11 4 -16 1 -16 -10z"/>
<path d="M1690 2695 c0 -10 10 -15 29 -15 17 0 33 -4 36 -10 9 -14 45 -12 45
3 0 12 -64 37 -95 37 -8 0 -15 -7 -15 -15z"/>
<path d="M3490 2695 c0 -16 17 -19 44 -9 26 10 18 24 -14 24 -20 0 -30 -5 -30
-15z"/>
<path d="M1332 2658 c-14 -14 -16 -68 -2 -68 6 0 10 11 10 24 0 14 5 28 10 31
12 7 13 25 2 25 -4 0 -13 -5 -20 -12z"/>
<path d="M1845 2660 c-9 -14 5 -32 20 -26 7 2 17 0 21 -4 11 -11 94 8 94 21 0
5 -20 6 -44 3 -27 -4 -46 -2 -50 5 -9 14 -33 14 -41 1z"/>
<path d="M3482 2658 c7 -19 38 -22 38 -4 0 10 -9 16 -21 16 -12 0 -19 -5 -17
-12z"/>
<path d="M3550 2655 c0 -8 9 -15 20 -15 11 0 20 7 20 15 0 8 -9 15 -20 15 -11
0 -20 -7 -20 -15z"/>
<path d="M2140 2641 c0 -11 37 -19 75 -16 44 4 45 4 45 15 0 6 -27 10 -60 10
-33 0 -60 -4 -60 -9z"/>
<path d="M2282 2638 c3 -7 15 -14 29 -15 50 -6 165 -25 200 -34 35 -9 54 -34
50 -66 -1 -7 5 -13 14 -13 18 0 19 9 5 45 -13 33 -34 55 -54 55 -8 0 -18 5
-21 10 -3 6 -26 10 -50 10 -24 0 -47 5 -50 10 -10 15 -128 13 -123 -2z"/>
<path d="M3670 2620 c0 -5 7 -10 15 -10 8 0 15 5 15 10 0 6 -7 10 -15 10 -8 0
-15 -4 -15 -10z"/>
<path d="M2740 2600 c0 -5 7 -10 15 -10 8 0 15 5 15 10 0 6 -7 10 -15 10 -8 0
-15 -4 -15 -10z"/>
<path d="M2820 2590 c0 -5 5 -10 10 -10 6 0 10 5 10 10 0 6 -4 10 -10 10 -5 0
-10 -4 -10 -10z"/>
<path d="M3172 2578 c3 -7 22 -17 44 -23 21 -5 41 -12 44 -16 20 -25 110 -41
110 -19 0 6 -11 10 -24 10 -14 0 -28 5 -31 10 -3 6 -17 10 -31 10 -13 0 -24 5
-24 10 0 6 -9 10 -19 10 -11 0 -23 5 -26 10 -9 15 -47 12 -43 -2z"/>
<path d="M2730 2560 c0 -5 7 -10 15 -10 8 0 15 5 15 10 0 6 -7 10 -15 10 -8 0
-15 -4 -15 -10z"/>
<path d="M2800 2560 c0 -5 7 -10 15 -10 8 0 15 5 15 10 0 6 -7 10 -15 10 -8 0
-15 -4 -15 -10z"/>
<path d="M2880 2556 c0 -15 37 -32 47 -22 9 8 -17 36 -33 36 -8 0 -14 -6 -14
-14z"/>
<path d="M1336 2533 c-4 -9 -10 -51 -13 -93 -5 -68 -4 -78 12 -84 24 -9 31 0
15 19 -13 15 -11 64 6 143 7 34 -9 46 -20 15z"/>
<path d="M1550 2531 c0 -17 27 -37 37 -27 7 7 -17 46 -27 46 -6 0 -10 -9 -10
-19z"/>
<path d="M3446 2543 c-4 -4 -14 -8 -23 -8 -16 0 -52 -90 -53 -132 0 -55 -36
-19 -42 42 -3 30 -16 35 -58 24 -9 -3 -16 4 -18 19 -2 12 -10 22 -18 22 -11 0
-13 -6 -9 -19 3 -11 1 -22 -5 -26 -6 -4 -8 -14 -5 -24 9 -29 -75 -124 -132
-147 -21 -9 -75 -14 -159 -14 -96 0 -125 -3 -122 -12 3 -9 40 -14 128 -16 114
-2 128 -1 176 22 33 16 65 42 90 73 48 61 63 73 80 66 8 -3 14 0 14 6 0 6 -4
11 -10 11 -5 0 -10 5 -10 10 0 6 9 10 21 10 17 0 20 -4 14 -28 -5 -23 1 -34
30 -62 19 -19 35 -40 35 -47 0 -7 6 -13 13 -13 10 0 12 15 9 59 -3 36 0 61 7
65 6 4 11 20 11 35 0 33 10 43 66 60 51 17 243 2 357 -27 20 -6 46 -8 56 -5
23 6 39 -33 22 -50 -8 -8 -11 -8 -11 1 0 28 -18 9 -24 -25 -15 -85 -83 -188
-128 -195 -34 -5 -33 -26 1 -24 41 2 82 44 122 124 18 37 41 79 51 94 35 50
16 98 -39 98 -16 0 -33 4 -39 10 -5 5 -37 11 -71 13 -34 1 -66 6 -69 10 -10 9
-249 9 -258 0z"/>
<path d="M3458 2479 c-26 -14 -22 -29 7 -29 14 0 25 5 25 10 0 6 14 10 30 10
30 0 41 -14 18 -23 -7 -2 -10 -8 -6 -12 10 -10 58 11 58 25 0 5 -9 10 -20 10
-11 0 -20 5 -20 10 0 13 -70 12 -92 -1z"/>
<path d="M2570 2429 c0 -40 6 -60 26 -86 14 -18 34 -33 45 -33 10 0 19 -4 19
-10 0 -5 11 -10 24 -10 14 0 28 -4 31 -10 10 -17 75 -12 75 5 0 10 -10 15 -34
15 -19 0 -38 5 -41 10 -3 6 -16 10 -29 10 -30 0 -66 35 -66 65 0 13 -5 25 -11
27 -9 3 -9 10 0 27 14 26 14 26 -16 35 -22 7 -23 5 -23 -45z"/>
<path d="M1570 2441 c0 -16 -6 -31 -12 -34 -7 -2 -10 -8 -6 -12 4 -4 14 -5 23
-2 17 7 22 77 5 77 -5 0 -10 -13 -10 -29z"/>
<path d="M3150 2460 c0 -5 7 -10 15 -10 8 0 15 5 15 10 0 6 -7 10 -15 10 -8 0
-15 -4 -15 -10z"/>
<path d="M3616 2455 c-11 -8 -16 -21 -13 -30 9 -22 34 -19 40 5 3 11 12 20 21
20 9 0 16 5 16 10 0 15 -42 12 -64 -5z"/>
<path d="M3770 2451 c0 -5 -22 -12 -50 -16 -71 -10 -62 -27 13 -23 56 3 62 5
65 26 2 15 -2 22 -12 22 -9 0 -16 -4 -16 -9z"/>
<path d="M3105 2439 c-4 -5 -18 -14 -31 -19 -24 -9 -35 -50 -14 -50 11 0 80
65 80 75 0 9 -29 5 -35 -6z"/>
<path d="M1490 2380 c0 -5 5 -10 10 -10 6 0 10 5 10 10 0 6 -4 10 -10 10 -5 0
-10 -4 -10 -10z"/>
<path d="M3590 2380 c0 -5 5 -10 10 -10 6 0 10 5 10 10 0 6 -4 10 -10 10 -5 0
-10 -4 -10 -10z"/>
<path d="M1550 2358 c1 -13 14 -39 30 -58 24 -28 30 -44 30 -82 0 -26 5 -48
10 -48 6 0 10 28 10 64 0 53 -4 67 -23 87 -13 13 -26 32 -30 42 -9 25 -27 21
-27 -5z"/>
<path d="M3600 2346 c0 -16 28 -42 36 -33 8 7 -14 47 -26 47 -6 0 -10 -6 -10
-14z"/>
<path d="M1370 2340 c0 -5 7 -10 15 -10 8 0 15 5 15 10 0 6 -7 10 -15 10 -8 0
-15 -4 -15 -10z"/>
<path d="M3030 2319 c0 -24 23 -21 28 4 2 10 -3 17 -12 17 -10 0 -16 -9 -16
-21z"/>
<path d="M1420 2320 c0 -5 7 -10 15 -10 8 0 15 5 15 10 0 6 -7 10 -15 10 -8 0
-15 -4 -15 -10z"/>
<path d="M3410 2252 c0 -29 83 -71 115 -58 26 9 16 26 -14 26 -17 0 -33 5 -36
10 -3 6 -15 10 -26 10 -10 0 -19 5 -19 10 0 6 -4 10 -10 10 -5 0 -10 -4 -10
-8z"/>
<path d="M3130 2192 c0 -13 68 -47 77 -38 4 4 -3 16 -17 26 -26 20 -60 26 -60
12z"/>
<path d="M3563 2188 c2 -9 25 -13 67 -13 42 0 65 4 68 13 3 9 -15 12 -68 12
-53 0 -71 -3 -67 -12z"/>
<path d="M2920 2180 c0 -22 33 -60 51 -60 11 0 28 -6 39 -12 16 -10 24 -10 41
0 17 11 27 11 50 1 36 -14 50 -4 23 16 -22 17 -66 19 -80 5 -12 -12 -62 10
-89 40 -20 22 -35 26 -35 10z"/>
<path d="M3343 2147 c-18 -6 -33 -15 -33 -19 0 -4 -34 -8 -75 -8 -43 0 -75 -4
-75 -10 0 -6 27 -10 61 -10 33 0 69 -5 81 -11 11 -6 23 -7 26 -3 4 4 1 9 -5
11 -23 8 -13 23 15 23 27 0 52 15 52 32 0 9 -4 9 -47 -5z"/>
<path d="M3620 2036 c0 -19 -4 -38 -10 -41 -15 -9 -13 -68 2 -63 13 5 41 115
32 129 -12 20 -24 7 -24 -25z"/>
<path d="M1340 2030 c0 -5 5 -10 10 -10 6 0 10 5 10 10 0 6 -4 10 -10 10 -5 0
-10 -4 -10 -10z"/>
<path d="M1810 2000 c0 -11 5 -20 10 -20 6 0 10 9 10 20 0 11 -4 20 -10 20 -5
0 -10 -9 -10 -20z"/>
<path d="M3370 2010 c0 -5 5 -10 10 -10 6 0 10 5 10 10 0 6 -4 10 -10 10 -5 0
-10 -4 -10 -10z"/>
<path d="M3420 1963 c0 -5 4 -15 10 -23 11 -18 25 -7 17 15 -6 15 -27 21 -27
8z"/>
<path d="M3580 1890 c0 -21 4 -30 13 -27 6 2 12 14 12 27 0 13 -6 25 -12 28
-9 2 -13 -7 -13 -28z"/>
<path d="M3015 1900 c-3 -5 -16 -10 -27 -10 -34 0 -88 -23 -88 -37 0 -15 41
-18 56 -4 12 11 96 31 133 31 21 0 31 5 31 15 0 11 -12 15 -49 15 -28 0 -53
-4 -56 -10z"/>
<path d="M3130 1895 c0 -12 17 -15 94 -15 104 0 152 -12 161 -41 4 -10 13 -19
21 -19 11 0 13 6 8 23 -8 27 -1 21 -56 46 -60 27 -228 31 -228 6z"/>
<path d="M3560 1825 c0 -8 5 -15 10 -15 6 0 10 7 10 15 0 8 -4 15 -10 15 -5 0
-10 -7 -10 -15z"/>
<path d="M3540 1765 c0 -8 -4 -23 -9 -33 -5 -9 -17 -37 -27 -62 -11 -25 -27
-53 -36 -62 -10 -10 -18 -24 -18 -31 0 -7 -9 -19 -20 -27 -11 -8 -20 -18 -20
-22 0 -4 -7 -16 -15 -25 -8 -10 -28 -37 -45 -60 -16 -24 -37 -43 -45 -43 -8 0
-15 -4 -15 -10 0 -5 -5 -10 -11 -10 -5 0 -37 -18 -69 -40 -32 -22 -64 -40 -71
-40 -6 0 -8 -7 -5 -16 7 -17 -15 -44 -36 -44 -8 0 -24 -9 -36 -20 -12 -11 -29
-20 -39 -20 -19 -1 -53 -22 -53 -34 0 -3 9 -6 19 -6 23 0 121 -106 121 -131 0
-10 5 -21 10 -24 13 -8 13 -139 1 -163 -5 -9 -16 -32 -23 -49 -9 -23 -19 -33
-35 -33 -12 0 -25 -4 -28 -10 -9 -15 -288 -12 -380 5 -44 8 -95 15 -112 15
-18 0 -33 5 -33 10 0 6 -8 10 -18 10 -9 0 -42 9 -72 20 -30 11 -65 20 -77 20
-12 0 -25 5 -28 10 -3 6 -19 10 -35 10 -16 0 -32 5 -35 10 -3 6 -17 10 -30 10
-13 0 -27 5 -30 10 -3 6 -19 10 -35 10 -16 0 -32 5 -35 10 -3 6 -19 10 -35 10
-16 0 -32 5 -35 10 -3 6 -19 10 -36 10 -16 0 -29 5 -29 10 0 6 -13 10 -30 10
-16 0 -30 5 -30 10 0 6 -16 10 -35 10 -19 0 -35 5 -35 10 0 6 -13 10 -30 10
-16 0 -30 5 -30 10 0 6 -9 10 -20 10 -11 0 -35 9 -55 20 -20 11 -44 20 -55 20
-10 0 -22 5 -25 10 -3 6 -15 10 -26 10 -10 0 -27 4 -37 9 -18 9 -62 28 -99 42
-13 5 -34 14 -47 20 -24 11 -46 6 -46 -12 0 -5 7 -9 15 -9 8 0 23 -4 33 -9 9
-5 29 -14 45 -20 15 -6 39 -16 55 -22 15 -6 35 -15 44 -20 10 -5 27 -9 37 -9
11 0 23 -4 26 -10 3 -5 15 -10 26 -10 10 0 27 -4 37 -9 9 -5 29 -14 45 -20 15
-6 37 -15 50 -20 12 -5 38 -14 57 -20 19 -6 61 -19 93 -30 32 -11 64 -18 71
-15 7 3 18 -2 25 -10 7 -9 39 -18 72 -22 33 -4 62 -11 65 -15 3 -5 14 -9 25
-9 10 0 27 -4 37 -9 30 -15 149 -51 170 -51 12 0 24 -4 27 -10 3 -5 22 -10 41
-10 19 0 34 -4 34 -10 0 -5 18 -10 39 -10 22 0 43 -4 46 -10 3 -5 21 -10 40
-10 19 0 37 -5 40 -10 4 -6 75 -10 180 -10 105 0 176 4 180 10 3 5 16 10 28
10 28 0 51 26 68 76 7 22 17 43 21 49 4 5 8 39 8 77 0 69 -18 117 -61 164 -10
11 -19 25 -19 31 0 7 -9 15 -20 18 -11 3 -20 10 -20 15 0 21 14 40 29 40 10 0
27 9 39 20 12 11 26 20 32 20 5 0 10 5 10 10 0 6 11 10 25 10 14 0 25 -4 25
-10 0 -5 8 -10 18 -10 18 1 52 22 52 34 0 10 -35 7 -47 -5 -9 -9 -16 -7 -29 5
-9 9 -15 18 -13 20 2 2 37 22 77 45 76 44 132 94 132 117 0 8 5 14 10 14 6 0
10 8 10 18 0 10 9 24 20 32 11 8 20 19 20 25 0 6 9 16 20 23 11 7 20 21 20 32
0 11 5 20 10 20 6 0 10 7 10 15 0 8 5 15 10 15 6 0 10 7 10 15 0 8 5 25 12 38
34 66 36 77 13 77 -8 0 -15 -7 -15 -15z"/>
<path d="M3196 1754 c-9 -23 -8 -24 13 -24 16 0 31 18 31 36 0 12 -39 2 -44
-12z"/>
<path d="M1110 1310 c0 -5 5 -10 10 -10 6 0 10 5 10 10 0 6 -4 10 -10 10 -5 0
-10 -4 -10 -10z"/>
<path d="M873 1285 c-13 -9 -23 -24 -23 -33 -1 -29 -44 -68 -83 -75 -21 -3
-50 -14 -65 -25 -45 -31 -142 -82 -158 -82 -8 0 -14 -4 -14 -10 0 -5 -11 -10
-24 -10 -14 0 -28 -4 -31 -10 -3 -5 -17 -10 -30 -10 -13 0 -27 -4 -30 -10 -3
-5 -15 -10 -26 -10 -10 0 -27 -4 -37 -9 -9 -5 -30 -14 -47 -21 -16 -7 -38 -16
-47 -21 -10 -5 -25 -9 -33 -9 -8 0 -15 -4 -15 -9 0 -21 23 -22 65 -2 25 12 54
21 65 21 11 0 20 5 20 10 0 6 11 10 25 10 14 0 33 4 43 9 17 9 50 23 95 40 57
22 231 113 235 124 2 4 15 7 28 7 13 0 24 5 24 10 0 6 8 10 18 10 24 0 42 19
42 46 0 27 65 63 83 45 6 -6 26 -11 44 -11 18 0 48 -9 68 -20 20 -11 47 -20
60 -20 14 0 25 -4 25 -10 0 -5 11 -10 24 -10 14 0 28 -4 31 -10 3 -5 17 -10
31 -10 13 0 33 -4 44 -10 11 -5 29 -14 40 -20 23 -12 60 -13 60 -2 0 10 -50
32 -71 32 -10 0 -21 5 -24 10 -3 6 -17 10 -30 10 -13 0 -27 5 -30 10 -3 6 -22
10 -41 10 -19 0 -34 5 -34 10 0 6 -7 10 -15 10 -16 0 -49 16 -76 37 -8 7 -49
16 -90 19 -59 5 -78 2 -96 -11z"/>
<path d="M3080 1270 c0 -5 7 -10 15 -10 8 0 15 5 15 10 0 6 -7 10 -15 10 -8 0
-15 -4 -15 -10z"/>
<path d="M3280 1252 c0 -9 53 -16 233 -29 48 -3 87 -9 87 -13 0 -5 19 -11 43
-14 102 -13 127 -19 133 -27 3 -5 14 -9 25 -9 10 0 19 -4 19 -10 0 -5 9 -10
20 -10 11 0 20 -4 20 -10 0 -5 11 -10 25 -10 14 0 25 -4 25 -10 0 -5 5 -10 11
-10 6 0 29 -13 52 -29 23 -15 47 -30 52 -32 47 -18 242 -194 286 -256 8 -12
35 -46 60 -74 101 -119 169 -204 169 -214 0 -3 15 -22 33 -41 17 -20 42 -54
54 -76 12 -22 28 -47 36 -56 13 -15 69 -115 101 -179 6 -13 14 -23 19 -23 4 0
7 -9 7 -20 0 -11 5 -20 10 -20 6 0 10 -7 10 -15 0 -8 7 -15 15 -15 8 0 15 4
15 9 0 15 -43 91 -52 91 -4 0 -8 6 -8 14 0 18 -40 95 -62 120 -9 10 -24 33
-32 51 -9 18 -34 57 -57 86 -166 218 -243 316 -270 347 -13 15 -44 52 -69 82
-24 31 -66 73 -93 95 -27 22 -54 45 -61 50 -6 6 -19 15 -28 20 -8 6 -35 24
-59 41 -40 29 -82 54 -135 82 -11 5 -39 18 -64 27 -25 9 -53 21 -62 26 -10 5
-26 9 -36 9 -10 0 -22 4 -28 9 -5 5 -27 12 -49 15 -22 3 -69 10 -105 16 -96
16 -290 24 -290 12z"/>
<path d="M3120 1177 c0 -6 25 -38 55 -70 30 -32 55 -64 55 -72 0 -8 5 -15 10
-15 6 0 10 -11 10 -24 0 -14 5 -28 10 -31 13 -8 13 -48 -2 -114 -11 -44 -24
-66 -70 -115 -32 -34 -58 -64 -58 -68 0 -39 116 82 142 147 16 39 19 66 16
120 -5 76 -24 112 -108 208 -42 47 -60 58 -60 34z"/>
<path d="M3210 1170 c0 -5 5 -10 10 -10 6 0 10 5 10 10 0 6 -4 10 -10 10 -5 0
-10 -4 -10 -10z"/>
<path d="M2880 1163 c-14 -3 -29 -9 -34 -14 -6 -5 -18 -9 -28 -9 -10 0 -18 -4
-18 -10 0 -5 11 -10 24 -10 14 0 28 5 31 10 3 6 22 10 41 10 24 0 34 5 34 15
0 15 -5 16 -50 8z"/>
<path d="M890 1132 c0 -11 45 -32 66 -32 9 0 14 6 11 13 -2 6 -11 12 -20 12
-8 0 -19 4 -23 8 -10 10 -34 9 -34 -1z"/>
<path d="M2723 1110 c-25 -10 -31 -30 -10 -30 18 0 67 24 67 33 0 9 -29 8 -57
-3z"/>
<path d="M2667 1083 c-12 -11 -8 -23 8 -23 8 0 15 7 15 15 0 16 -12 20 -23 8z"/>
<path d="M3310 1075 c0 -8 5 -15 10 -15 6 0 10 -7 10 -15 0 -8 5 -15 10 -15 6
0 10 -7 10 -15 0 -8 5 -15 10 -15 6 0 10 7 10 15 0 8 -4 15 -10 15 -5 0 -10 7
-10 15 0 8 -4 15 -10 15 -5 0 -10 7 -10 15 0 8 -4 15 -10 15 -5 0 -10 -7 -10
-15z"/>
<path d="M3970 945 c0 -11 44 -65 52 -65 14 0 8 24 -11 48 -18 20 -41 30 -41
17z"/>
<path d="M150 920 c0 -5 -14 -10 -31 -10 -20 0 -29 -4 -27 -12 7 -20 34 -21
52 -3 9 9 20 14 25 11 12 -8 41 3 41 15 0 5 -13 9 -30 9 -16 0 -30 -4 -30 -10z"/>
<path d="M3390 920 c0 -5 5 -10 10 -10 6 0 10 5 10 10 0 6 -4 10 -10 10 -5 0
-10 -4 -10 -10z"/>
<path d="M0 874 c0 -13 7 -15 31 -10 17 3 35 6 40 6 5 0 9 5 9 10 0 6 -18 10
-40 10 -30 0 -40 -4 -40 -16z"/>
<path d="M4050 844 c0 -10 31 -36 37 -31 3 3 -2 13 -10 22 -16 15 -27 19 -27
9z"/>
<path d="M3050 625 c0 -8 5 -15 10 -15 6 0 10 7 10 15 0 8 -4 15 -10 15 -5 0
-10 -7 -10 -15z"/>
<path d="M4420 575 c0 -8 5 -15 10 -15 6 0 10 7 10 15 0 8 -4 15 -10 15 -5 0
-10 -7 -10 -15z"/>
<path d="M4560 350 c0 -5 5 -10 10 -10 6 0 10 5 10 10 0 6 -4 10 -10 10 -5 0
-10 -4 -10 -10z"/>
<path d="M4580 300 c0 -11 5 -20 10 -20 6 0 10 -7 10 -15 0 -8 5 -15 10 -15 6
0 10 7 10 15 0 8 -4 15 -10 15 -5 0 -10 9 -10 20 0 11 -4 20 -10 20 -5 0 -10
-9 -10 -20z"/>
<path d="M4620 220 c0 -11 5 -20 10 -20 6 0 10 9 10 20 0 11 -4 20 -10 20 -5
0 -10 -9 -10 -20z"/>
<path d="M4700 125 c0 -8 5 -15 10 -15 6 0 10 7 10 15 0 8 -4 15 -10 15 -5 0
-10 -7 -10 -15z"/>
<path d="M4700 70 c0 -11 5 -20 10 -20 6 0 10 9 10 20 0 11 -4 20 -10 20 -5 0
-10 -9 -10 -20z"/>
<path d="M4710 16 c0 -9 7 -16 16 -16 9 0 14 5 12 12 -6 18 -28 21 -28 4z"/>
<path d="M4830 15 c0 -8 7 -15 15 -15 8 0 15 7 15 15 0 8 -7 15 -15 15 -8 0
-15 -7 -15 -15z"/>
</g>
</svg>
